<mxfile host="Electron" modified="2023-12-04T11:18:42.053Z" agent="Mozilla/5.0 (Windows NT 10.0; Win64; x64) AppleWebKit/537.36 (KHTML, like Gecko) draw.io/22.1.2 Chrome/114.0.5735.289 Electron/25.9.4 Safari/537.36" etag="06_DGvqAvKMWDHej9jVW" version="22.1.2" type="device">
  <diagram name="第 1 页" id="wVpAYVqgKlU2BSyeh4Ir">
    <mxGraphModel dx="964" dy="657" grid="1" gridSize="10" guides="1" tooltips="1" connect="1" arrows="1" fold="1" page="1" pageScale="1" pageWidth="827" pageHeight="1169" math="0" shadow="0">
      <root>
        <mxCell id="0" />
        <mxCell id="1" parent="0" />
        <mxCell id="Td3LOWsatYxlO6JrIiXO-4" value="&lt;font style=&quot;vertical-align: inherit;&quot;&gt;&lt;font style=&quot;vertical-align: inherit;&quot;&gt;预定会议&lt;br&gt;&lt;/font&gt;&lt;/font&gt;" style="ellipse;whiteSpace=wrap;html=1;" parent="1" vertex="1">
          <mxGeometry x="300" y="170" width="140" height="70" as="geometry" />
        </mxCell>
        <mxCell id="Td3LOWsatYxlO6JrIiXO-5" value="&lt;font style=&quot;vertical-align: inherit;&quot;&gt;&lt;font style=&quot;vertical-align: inherit;&quot;&gt;&lt;font style=&quot;vertical-align: inherit;&quot;&gt;&lt;font style=&quot;vertical-align: inherit;&quot;&gt;会议室管理&lt;/font&gt;&lt;/font&gt;&lt;br&gt;&lt;/font&gt;&lt;/font&gt;" style="ellipse;whiteSpace=wrap;html=1;" parent="1" vertex="1">
          <mxGeometry x="250" y="310" width="140" height="70" as="geometry" />
        </mxCell>
        <mxCell id="V7-b6AJY9DbrneXbvsfE-7" style="rounded=0;orthogonalLoop=1;jettySize=auto;html=1;" parent="1" source="V7-b6AJY9DbrneXbvsfE-1" target="Td3LOWsatYxlO6JrIiXO-5" edge="1">
          <mxGeometry relative="1" as="geometry" />
        </mxCell>
        <mxCell id="V7-b6AJY9DbrneXbvsfE-10" style="rounded=0;orthogonalLoop=1;jettySize=auto;html=1;" parent="1" source="V7-b6AJY9DbrneXbvsfE-1" target="Td3LOWsatYxlO6JrIiXO-4" edge="1">
          <mxGeometry relative="1" as="geometry" />
        </mxCell>
        <mxCell id="V7-b6AJY9DbrneXbvsfE-1" value="会议主持人&lt;br&gt;" style="shape=umlActor;verticalLabelPosition=bottom;verticalAlign=top;html=1;outlineConnect=0;" parent="1" vertex="1">
          <mxGeometry x="120" y="250" width="30" height="60" as="geometry" />
        </mxCell>
        <mxCell id="V7-b6AJY9DbrneXbvsfE-8" value="会议签到" style="ellipse;whiteSpace=wrap;html=1;" parent="1" vertex="1">
          <mxGeometry x="500" y="410" width="140" height="70" as="geometry" />
        </mxCell>
        <mxCell id="V7-b6AJY9DbrneXbvsfE-9" value="&amp;lt;&amp;lt;include&amp;gt;&amp;gt;" style="html=1;verticalAlign=bottom;labelBackgroundColor=none;endArrow=open;endFill=0;dashed=1;rounded=0;" parent="1" source="Td3LOWsatYxlO6JrIiXO-5" target="V7-b6AJY9DbrneXbvsfE-8" edge="1">
          <mxGeometry width="160" relative="1" as="geometry">
            <mxPoint x="440" y="350" as="sourcePoint" />
            <mxPoint x="530" y="340" as="targetPoint" />
          </mxGeometry>
        </mxCell>
        <mxCell id="V7-b6AJY9DbrneXbvsfE-19" style="rounded=0;orthogonalLoop=1;jettySize=auto;html=1;exitX=0;exitY=1;exitDx=0;exitDy=0;exitPerimeter=0;" parent="1" source="V7-b6AJY9DbrneXbvsfE-11" target="V7-b6AJY9DbrneXbvsfE-8" edge="1">
          <mxGeometry relative="1" as="geometry" />
        </mxCell>
        <mxCell id="V7-b6AJY9DbrneXbvsfE-11" value="项目成员" style="shape=umlActor;verticalLabelPosition=bottom;verticalAlign=top;html=1;" parent="1" vertex="1">
          <mxGeometry x="740" y="220" width="30" height="60" as="geometry" />
        </mxCell>
        <mxCell id="V7-b6AJY9DbrneXbvsfE-16" value="添加与会人员" style="ellipse;whiteSpace=wrap;html=1;" parent="1" vertex="1">
          <mxGeometry x="490" y="260" width="140" height="70" as="geometry" />
        </mxCell>
        <mxCell id="V7-b6AJY9DbrneXbvsfE-17" value="&amp;lt;&amp;lt;include&amp;gt;&amp;gt;" style="html=1;verticalAlign=bottom;labelBackgroundColor=none;endArrow=open;endFill=0;dashed=1;rounded=0;exitX=0.9;exitY=0.192;exitDx=0;exitDy=0;exitPerimeter=0;entryX=0;entryY=1;entryDx=0;entryDy=0;" parent="1" source="Td3LOWsatYxlO6JrIiXO-5" target="V7-b6AJY9DbrneXbvsfE-16" edge="1">
          <mxGeometry width="160" relative="1" as="geometry">
            <mxPoint x="330" y="340" as="sourcePoint" />
            <mxPoint x="490" y="340" as="targetPoint" />
          </mxGeometry>
        </mxCell>
        <mxCell id="V7-b6AJY9DbrneXbvsfE-18" value="" style="endArrow=none;html=1;rounded=0;exitX=0.986;exitY=0.261;exitDx=0;exitDy=0;exitPerimeter=0;" parent="1" source="V7-b6AJY9DbrneXbvsfE-16" target="V7-b6AJY9DbrneXbvsfE-11" edge="1">
          <mxGeometry width="50" height="50" relative="1" as="geometry">
            <mxPoint x="630" y="290" as="sourcePoint" />
            <mxPoint x="680" y="240" as="targetPoint" />
          </mxGeometry>
        </mxCell>
      </root>
    </mxGraphModel>
  </diagram>
</mxfile>
